<svg width="38" height="38" viewBox="0 0 38 38" fill="none" xmlns="http://www.w3.org/2000/svg">
<circle cx="19" cy="19" r="19" fill="white"/>
<path d="M30.3011 7.71449L30.3018 7.71516C31.8218 9.22934 32.3145 11.0731 32.4177 13.2533L32.9172 13.2297L32.418 13.258C32.5482 15.5516 32.5482 22.4577 32.418 24.7514L32.4178 24.7546C32.3084 26.936 31.8155 28.7805 30.3011 30.2949L30.3005 30.2956C28.7863 31.8155 26.9425 32.3083 24.7623 32.4115L24.7576 32.4117C22.464 32.5419 15.5516 32.5419 13.258 32.4117L13.2547 32.4116C11.0741 32.3022 9.23497 31.8096 7.71382 30.2942C6.19386 28.78 5.70112 26.9362 5.5979 24.756L5.59763 24.7514C5.46746 22.4577 5.46746 15.5454 5.59763 13.2518L5.59764 13.2518L5.59781 13.2485C5.70724 11.066 6.19433 9.22263 7.71382 7.70891C9.23476 6.19375 11.0798 5.70109 13.2534 5.59787L13.2534 5.5979L13.258 5.59763C15.5516 5.46746 22.464 5.46746 24.7576 5.59764L24.7609 5.59781C26.9423 5.70718 28.7867 6.20009 30.3011 7.71449ZM27.4515 30.3882L27.4533 30.3875C28.8108 29.8431 29.8557 28.799 30.3942 27.4458C30.797 26.4338 30.936 24.7933 30.9849 23.2234C31.0205 22.0822 31.0087 20.92 30.9992 19.9853C30.9955 19.6184 30.9922 19.2865 30.9922 19.0047C30.9922 18.7228 30.9955 18.391 30.9993 18.0242C31.0087 17.09 31.0205 15.9289 30.9849 14.7883C30.936 13.2189 30.7969 11.5789 30.3945 10.5641L30.3938 10.5623C29.8494 9.20483 28.8052 8.15988 27.4521 7.62137L27.4507 7.62083C26.4395 7.22186 24.7999 7.08276 23.2299 7.03306C22.0801 6.99667 20.9097 7.00789 19.9715 7.01688C19.6126 7.02032 19.2877 7.02344 19.0109 7.02344C18.7291 7.02344 18.3972 7.02008 18.0304 7.01636C17.0963 7.00691 15.9351 6.99516 14.7946 7.03071C13.2252 7.07963 11.5851 7.21869 10.5703 7.62116L10.5703 7.62115L10.5686 7.62186C9.21107 8.16624 8.16613 9.21039 7.62762 10.5636L7.62708 10.5649C7.22811 11.5761 7.08901 13.2157 7.03931 14.7857C7.00292 15.9356 7.01414 17.1059 7.02313 18.0442C7.02657 18.403 7.02969 18.7279 7.02969 19.0047C7.02969 19.2865 7.02633 19.6184 7.02261 19.9852C7.01316 20.9194 7.00141 22.0805 7.03696 23.221C7.08588 24.7905 7.22494 26.4305 7.6274 27.4453L7.62811 27.447C8.17249 28.8045 9.21664 29.8495 10.5698 30.388L10.5712 30.3885C11.5823 30.7875 13.222 30.9266 14.792 30.9763C15.9418 31.0127 17.1122 31.0015 18.0504 30.9925C18.4093 30.9891 18.7341 30.9859 19.0109 30.9859C19.2928 30.9859 19.6246 30.9893 19.9915 30.993C20.9256 31.0025 22.0867 31.0142 23.2273 30.9787C24.7967 30.9297 26.4368 30.7907 27.4515 30.3882ZM12.3297 19.0047C12.3297 15.3058 15.3121 12.3234 19.0109 12.3234C22.7098 12.3234 25.6922 15.3058 25.6922 19.0047C25.6922 22.7035 22.7098 25.6859 19.0109 25.6859C15.3121 25.6859 12.3297 22.7035 12.3297 19.0047ZM13.8422 19.0047C13.8422 21.8563 16.1665 24.1734 19.0109 24.1734C21.8554 24.1734 24.1797 21.8563 24.1797 19.0047C24.1797 16.1535 21.8621 13.8359 19.0109 13.8359C16.1598 13.8359 13.8422 16.1535 13.8422 19.0047ZM27.6609 11.5297C27.6609 12.1836 27.136 12.7047 26.4859 12.7047C25.832 12.7047 25.3109 12.1798 25.3109 11.5297C25.3109 10.8808 25.8371 10.3547 26.4859 10.3547C27.1348 10.3547 27.6609 10.8808 27.6609 11.5297Z" stroke="black"/>
</svg>
