<svg width="189" height="188" viewBox="0 0 189 188" fill="none" xmlns="http://www.w3.org/2000/svg">
<g filter="url(#filter0_d_4_32)">
<path d="M162.184 164.902L163.304 165.206L162.756 164.184C159.295 157.723 156.658 152.681 154.869 146.61C153.082 140.543 152.137 133.423 152.106 122.821L152.103 121.696L151.27 122.453L122.329 148.749L121.823 149.209L122.414 149.552C137.005 158.032 146.074 160.528 162.184 164.902Z" fill="#000E41" stroke="white"/>
<path d="M162.97 90.985C162.97 132.95 128.95 166.97 86.985 166.97C45.0196 166.97 11 132.95 11 90.985C11 49.0196 45.0196 15 86.985 15C128.95 15 162.97 49.0196 162.97 90.985Z" fill="url(#paint0_radial_4_32)"/>
<path d="M43.3385 76.7616H48.2026V99.6925H43.3385C38.7333 99.6925 35 95.9592 35 91.354V85.1001C35 80.4949 38.7333 76.7616 43.3385 76.7616Z" fill="white"/>
<path d="M48.2026 99.6925V102.693H51.2026V99.6925H48.2026ZM48.2026 73.7616H43.3385V79.7616H48.2026V73.7616ZM32 85.1001V91.354H38V85.1001H32ZM43.3385 102.693H48.2026V96.6925H43.3385V102.693ZM51.2026 99.6925V76.7616H45.2026V99.6925H51.2026ZM51.2026 76.7616V70.5078H45.2026V76.7616H51.2026ZM60.7104 61H110.741V55H60.7104V61ZM120.249 70.5078V108.726H126.249V70.5078H120.249ZM110.741 118.234H88.5054V124.234H110.741V118.234ZM110.741 61C115.992 61 120.249 65.2568 120.249 70.5078H126.249C126.249 61.9431 119.306 55 110.741 55V61ZM51.2026 70.5078C51.2026 65.2568 55.4594 61 60.7104 61V55C52.1457 55 45.2026 61.9431 45.2026 70.5078H51.2026ZM32 91.354C32 97.6161 37.0764 102.693 43.3385 102.693V96.6925C40.3901 96.6925 38 94.3024 38 91.354H32ZM120.249 108.726C120.249 113.977 115.992 118.234 110.741 118.234V124.234C119.306 124.234 126.249 117.291 126.249 108.726H120.249ZM43.3385 73.7616C37.0764 73.7616 32 78.8381 32 85.1001H38C38 82.1518 40.3901 79.7616 43.3385 79.7616V73.7616Z" fill="white"/>
<path d="M139.478 91.4211C139.572 96.793 135.293 101.224 129.921 101.318L123.687 101.426L123.216 74.4332L129.45 74.3244C134.822 74.2307 139.253 78.5095 139.346 83.8814L139.478 91.4211Z" fill="white"/>
<path d="M99.1124 122.329C99.1124 125.607 95.923 128.265 91.9888 128.265C88.0545 128.265 84.8652 125.607 84.8652 122.329C84.8652 119.05 88.0545 116.392 91.9888 116.392C95.923 116.392 99.1124 119.05 99.1124 122.329Z" fill="white"/>
<path d="M77.7416 81.9616C77.7416 85.2401 75.0838 87.8979 71.8052 87.8979C68.5267 87.8979 65.8689 85.2401 65.8689 81.9616C65.8689 78.683 68.5267 76.0253 71.8052 76.0253C75.0838 76.0253 77.7416 78.683 77.7416 81.9616ZM68.5037 81.9616C68.5037 83.785 69.9819 85.2631 71.8052 85.2631C73.6286 85.2631 75.1068 83.785 75.1068 81.9616C75.1068 80.1382 73.6286 78.6601 71.8052 78.6601C69.9819 78.6601 68.5037 80.1382 68.5037 81.9616Z" fill="white"/>
<path d="M107.753 81.8202C107.753 85.0988 105.095 87.7566 101.816 87.7566C98.5379 87.7566 95.8801 85.0988 95.8801 81.8202C95.8801 78.5417 98.5379 75.8839 101.816 75.8839C105.095 75.8839 107.753 78.5417 107.753 81.8202ZM98.5149 81.8202C98.5149 83.6436 99.9931 85.1218 101.816 85.1218C103.64 85.1218 105.118 83.6436 105.118 81.8202C105.118 79.9968 103.64 78.5187 101.816 78.5187C99.9931 78.5187 98.5149 79.9968 98.5149 81.8202Z" fill="white"/>
<path d="M61.1199 97.396H113.36V100.658H61.1199V97.396Z" fill="white"/>
<path d="M68.6499 98.0493C68.6534 99.219 69.1183 100.376 70.0182 101.453C70.9181 102.531 72.2353 103.508 73.8947 104.329C75.554 105.151 77.523 105.8 79.6892 106.24C81.8554 106.68 84.1763 106.902 86.5196 106.894C88.8628 106.886 91.1825 106.647 93.346 106.192C95.5096 105.737 97.4747 105.074 99.1292 104.241C100.784 103.408 102.095 102.421 102.989 101.338C103.882 100.254 104.34 99.0939 104.337 97.9241L68.6499 98.0493Z" fill="white"/>
<path d="M130.211 153.5C117.94 162.003 103.045 166.985 86.985 166.985C45.0196 166.985 11 132.965 11 91C11 49.0346 45.0196 15.015 86.985 15.015C128.95 15.015 162.97 49.0346 162.97 91C162.97 105.05 158.648 119.21 152 130.5" stroke="white"/>
</g>
<defs>
<filter id="filter0_d_4_32" x="0.5" y="0.514984" width="187.793" height="186.97" filterUnits="userSpaceOnUse" color-interpolation-filters="sRGB">
<feFlood flood-opacity="0" result="BackgroundImageFix"/>
<feColorMatrix in="SourceAlpha" type="matrix" values="0 0 0 0 0 0 0 0 0 0 0 0 0 0 0 0 0 0 127 0" result="hardAlpha"/>
<feOffset dx="7" dy="3"/>
<feGaussianBlur stdDeviation="8.5"/>
<feComposite in2="hardAlpha" operator="out"/>
<feColorMatrix type="matrix" values="0 0 0 0 0 0 0 0 0 0 0 0 0 0 0 0 0 0 0.62 0"/>
<feBlend mode="normal" in2="BackgroundImageFix" result="effect1_dropShadow_4_32"/>
<feBlend mode="normal" in="SourceGraphic" in2="effect1_dropShadow_4_32" result="shape"/>
</filter>
<radialGradient id="paint0_radial_4_32" cx="0" cy="0" r="1" gradientUnits="userSpaceOnUse" gradientTransform="translate(86.985 90.985) rotate(90) scale(75.985)">
<stop stop-color="#021864"/>
<stop offset="0.817708" stop-color="#000518"/>
<stop offset="1" stop-color="#00114E"/>
</radialGradient>
</defs>
</svg>
