<svg width="38" height="38" viewBox="0 0 38 38" fill="none" xmlns="http://www.w3.org/2000/svg">
<circle cx="19" cy="19" r="19" fill="white"/>
<path d="M24.2231 23.2715L24.2231 23.2715L24.2298 23.2742C25.7547 23.8811 27.4139 24.3101 29.1565 24.5075C29.712 24.5704 29.9832 24.9828 29.9522 25.2568L29.4992 29.2562C29.4735 29.4828 29.3785 29.6969 29.2305 29.8381C29.0963 29.9662 28.8841 30.0688 28.5311 30.0288C15.9136 28.5996 6.55035 18.6212 7.73035 8.20394C7.7556 7.98101 7.86815 7.85552 8.07131 7.7699C8.3018 7.67276 8.62556 7.64615 8.94952 7.68285L13.7245 8.22373C14.2801 8.28666 14.5513 8.69908 14.5203 8.97305C14.352 10.4584 14.4618 11.9293 14.8423 13.3344C14.8914 13.5369 14.8274 13.7611 14.5947 13.9301L11.7089 15.5366L11.3139 15.7565L11.4931 16.1716C13.1057 19.908 16.5158 23.3566 20.3269 25.4085L20.6257 25.5694L20.8856 25.351L23.2868 23.3331C23.5464 23.1717 23.9086 23.141 24.2231 23.2715Z" stroke="black"/>
</svg>
