<svg width="38" height="38" viewBox="0 0 38 38" fill="none" xmlns="http://www.w3.org/2000/svg">
<circle cx="19" cy="19" r="19" fill="white"/>
<path d="M30.4074 18.5809C30.4132 15.6427 29.157 12.8976 27.1335 10.8379C25.0982 8.76614 22.3863 7.62402 19.5 7.62402C13.5362 7.62402 8.69866 12.5446 8.69866 18.5742C8.69866 20.6427 9.26521 22.6543 10.3474 24.3998L10.4788 24.612L9.49709 28.2601L9.27222 29.0958L10.1085 28.8732L13.7979 27.8914L13.9898 28.0077L13.9908 28.0083C15.6482 29.007 17.551 29.5357 19.4944 29.5357C25.4453 29.5357 30.4068 24.6227 30.4074 18.5809ZM30.4074 18.5809L29.9076 18.5799H30.4074C30.4074 18.5802 30.4074 18.5805 30.4074 18.5809ZM9.24054 24.9916L9.29405 24.7933L9.19273 24.6147C8.15313 22.7817 7.60603 20.7031 7.60603 18.5742C7.60603 11.9105 12.9472 6.5 19.4944 6.5C22.6686 6.5 25.6542 7.75391 27.899 10.0378C30.1533 12.3314 31.5 15.3633 31.5 18.5799C31.5 25.2373 26.0423 30.6541 19.4944 30.6541H19.4888C17.4976 30.6541 15.5442 30.1488 13.8105 29.1875L13.6342 29.0897L13.4393 29.1417L7.70847 30.6688L9.24054 24.9916ZM24.9122 21.6522L24.9122 21.6523L24.9188 21.6555C24.9711 21.6816 25.0237 21.7071 25.07 21.7296C25.0927 21.7406 25.1139 21.7509 25.1328 21.7601C25.1937 21.79 25.2377 21.8124 25.272 21.8319C25.2747 21.8869 25.2738 21.9638 25.2657 22.0603C25.2469 22.2845 25.1913 22.5845 25.077 22.9126C25.005 23.1191 24.7509 23.3934 24.3603 23.648C23.9807 23.8954 23.5912 24.0471 23.3873 24.0781C22.9369 24.1456 22.5578 24.1602 22.0663 24.0658C21.5599 23.9687 20.9162 23.7523 19.9464 23.3273C17.2033 22.1225 15.3329 19.4257 14.9253 18.838C14.8955 18.7951 14.8736 18.7635 14.8596 18.7444C14.8562 18.7397 14.8523 18.7343 14.848 18.7283C14.7567 18.602 14.4783 18.2166 14.2155 17.6909C13.9349 17.1292 13.6942 16.4497 13.6942 15.7875C13.6942 14.5388 14.2775 13.9039 14.5856 13.5684C14.6076 13.5444 14.6283 13.522 14.6472 13.5009C14.8223 13.3101 15.0139 13.2742 15.1027 13.2742C15.3135 13.2742 15.5029 13.2744 15.6625 13.2845L15.6644 13.2847C15.7034 13.287 15.7417 13.2869 15.7643 13.2868L15.7692 13.2868C15.7863 13.2868 15.7975 13.2868 15.8061 13.287C15.8275 13.3116 15.8718 13.3739 15.9289 13.5129C16.0045 13.698 16.1113 13.9621 16.2267 14.2475C16.307 14.446 16.3914 14.6548 16.4725 14.8547C16.663 15.3244 16.8479 15.7775 16.8975 15.8782C16.9233 15.9306 16.9287 15.956 16.9297 15.966C16.9301 15.9697 16.9299 15.9712 16.9298 15.9721C16.9296 15.973 16.9287 15.9783 16.9238 15.9889C16.6952 16.4519 16.4688 16.6926 16.2816 16.8918C16.2571 16.9178 16.2334 16.943 16.2104 16.968L16.2091 16.9694C16.12 17.066 15.9645 17.2346 15.9051 17.4638C15.8348 17.7347 15.9182 17.9756 16.0305 18.1714L16.0307 18.1718C16.6558 19.2608 17.2913 20.0135 18.0203 20.6152C18.7418 21.2107 19.5379 21.6435 20.4496 22.1062C20.6385 22.2036 20.8696 22.2876 21.1229 22.2556C21.3957 22.2212 21.59 22.0674 21.727 21.9069C21.9027 21.7015 22.5195 20.9712 22.7481 20.6201C22.7737 20.6281 22.8063 20.6396 22.8499 20.6562L22.8499 20.6562L22.8582 20.6592C22.9672 20.6982 23.3864 20.8965 23.8563 21.1262C24.3097 21.3478 24.7635 21.5754 24.9122 21.6522ZM25.2654 21.7641C25.2647 21.7612 25.2644 21.7597 25.2645 21.7597C25.2645 21.7597 25.2649 21.7611 25.2654 21.7641ZM15.7921 13.2731C15.7921 13.2731 15.7928 13.2736 15.7943 13.2748C15.7928 13.2738 15.792 13.2732 15.7921 13.2731Z" stroke="black"/>
</svg>
